<?xml version="1.0" encoding="UTF-8" standalone="no"?>
<svg width="31px" height="30px" viewBox="0 0 31 30" version="1.1" xmlns="http://www.w3.org/2000/svg" xmlns:xlink="http://www.w3.org/1999/xlink">
    <!-- Generator: Sketch 43.1 (39012) - http://www.bohemiancoding.com/sketch -->
    <title>icon</title>
    <desc>Created with Sketch.</desc>
    <defs></defs>
    <g id="Page-1" stroke="none" stroke-width="1" fill="none" fill-rule="evenodd">
        <g id="iPhone-SE" transform="translate(-17.000000, -18.000000)">
            <g id="icon" transform="translate(17.000000, 18.000000)">
                <rect id="Rectangle-3" stroke="#666666" stroke-width="0.6" x="0.3" y="0.385164835" width="30.4" height="29.2076923" rx="4"></rect>
                <path d="M12.6851675,16.6424675 C14.4429888,16.6424675 15.3218863,17.3602337 15.3218863,18.7957878 C15.3218863,20.2362247 14.572382,20.9564323 13.0733511,20.9564323 C11.2520529,20.9564323 10.3414175,19.547755 10.3414175,16.7303581 C10.3414175,13.829953 11.4717773,12.3797722 13.7325308,12.3797722 C14.4112451,12.3797722 15.0313561,12.5592137 15.5928824,12.9181022 C16.1544086,13.2769908 16.6194918,13.7371912 16.988146,14.2987175 C17.3568002,14.8602437 17.5411245,15.1702992 17.5411245,15.2288933 L17.5411245,13.0682487 C17.5411245,11.1883565 16.6622271,10.2484245 14.9044058,10.2484245 C12.8829113,10.2484245 11.5914203,10.7977354 11.0298941,11.8963737 L9.52842923,10.9661979 C10.3096831,9.46716701 12.0503884,8.71766278 14.7505972,8.71766278 C16.5914267,8.71766278 17.9122143,9.09851835 18.7129995,9.86024091 C19.5137848,10.6219635 19.9141714,11.8304475 19.9141714,13.4857292 L19.9141714,20.8392448 L17.5411245,20.8392448 L17.5411245,19.8797722 C17.5411245,18.8787906 17.1407379,17.6239203 16.3399527,16.1151237 C15.5391674,14.6063271 14.6505044,13.8519401 13.673937,13.8519401 C13.0147541,13.8519401 12.6851675,14.4598442 12.6851675,15.6756706 L12.6851675,16.6424675 Z M13.0147574,17.8070183 C12.3506915,17.8070183 12.0186636,18.1366048 12.0186636,18.7957878 C12.0186636,19.4598536 12.3506915,19.7918815 13.0147574,19.7918815 C13.6739403,19.7918815 14.0035269,19.4598536 14.0035269,18.7957878 C14.0035269,18.1366048 13.6739403,17.8070183 13.0147574,17.8070183 Z" id="ล" fill="#666666"></path>
            </g>
        </g>
    </g>
</svg>